<?xml version="1.0" encoding="utf-8"?>
<svg xmlns="http://www.w3.org/2000/svg" viewBox="0 0 24 24" width="15" height="15">
  <path d="M5.5742188 1.9960938L2.2421875 2.0136719L2.2519531 4.0136719L4.2734375 4.0039062L7.4921875 11.908203L6.3222656 13.824219C5.9312656 14.464219 5.9125313 15.272641 6.2695312 15.931641C6.6265312 16.590641 7.3069688 17 8.0429688 17L19.816406 17L19.816406 15L8.0429688 15L7.9785156 14.882812L9.1269531 13L16.419922 13C17.129922 13 17.783953 12.606656 18.126953 11.972656L22.142578 4.5664062L20.435547 3.5957031L16.419922 11L9.2382812 11L5.5742188 1.9960938 z M 11.414062 2L10 3.4140625L11.585938 5L10 6.5859375L11.414062 8L13 6.4140625L14.585938 8L16 6.5859375L14.414062 5L16 3.4140625L14.585938 2L13 3.5859375L11.414062 2 z M 8.0976562 18 A 1.9529999 2 0 0 0 6.1445312 20 A 1.9529999 2 0 0 0 8.0976562 22 A 1.9529999 2 0 0 0 10.050781 20 A 1.9529999 2 0 0 0 8.0976562 18 z M 17.863281 18 A 1.9529999 2 0 0 0 15.910156 20 A 1.9529999 2 0 0 0 17.863281 22 A 1.9529999 2 0 0 0 19.816406 20 A 1.9529999 2 0 0 0 17.863281 18 z" fill="#FFFFFF" />
</svg>