<svg xmlns="http://www.w3.org/2000/svg" width="15.971" height="16.004" viewBox="0 0 15.971 16.004"><defs><style>.a{fill:#cc0000;}</style></defs><g transform="translate(27.964 -4.823)"><g transform="translate(-27.964 4.823)"><path class="a" d="M-16.055,20.827c-2.251,0-5.266-1.852-7.678-4.265-3.787-3.786-5.253-7.884-3.487-9.743l1.362-1.363a2.3,2.3,0,0,1,3.126-.041l2.028,2.025a2.223,2.223,0,0,1,.591,2.125,2.144,2.144,0,0,1-1.455,1.55.463.463,0,0,0-.229.206.286.286,0,0,0-.038.221,5.279,5.279,0,0,0,3.057,3.1.467.467,0,0,0,.5-.27,2.131,2.131,0,0,1,1.542-1.434,2.218,2.218,0,0,1,2.125.591l1.982,1.983a2.293,2.293,0,0,1,.041,3.128l-1.386,1.389A2.829,2.829,0,0,1-16.055,20.827ZM-24.287,6.6a.442.442,0,0,0-.316.116L-25.948,8.06c-.759.8.181,3.955,3.471,7.245,3.319,3.32,6.457,4.258,7.246,3.472l1.346-1.346a.517.517,0,0,0,0-.655h0l-1.983-1.984a.464.464,0,0,0-.44-.124.375.375,0,0,0-.278.252,2.238,2.238,0,0,1-2.6,1.457,6.909,6.909,0,0,1-4.356-4.347,2,2,0,0,1,.2-1.58,2.252,2.252,0,0,1,1.236-1.027.388.388,0,0,0,.273-.286.455.455,0,0,0-.124-.439l-1.983-1.984A.534.534,0,0,0-24.287,6.6Z" transform="translate(27.964 -4.823)"/></g></g></svg>