<svg xmlns="http://www.w3.org/2000/svg" version="1.1" xmlns:xlink="http://www.w3.org/1999/xlink" xmlns:svgjs="http://svgjs.com/svgjs" width="449.781" height="284.718"><svg xmlns="http://www.w3.org/2000/svg" width="449.781" height="284.718" viewBox="0 0 449.781 284.718">
  <defs>
    <style>
      .cls-1 {
        fill: #e51837;
      }

      .cls-1, .cls-2, .cls-3 {
        fill-rule: evenodd;
      }

      .cls-2 {
        fill: #6f6b6b;
      }

      .cls-3 {
        fill: #e60000;
      }
    </style>
  </defs>
  <path id="SvgjsPath1002" class="cls-1" d="M85,387s28.627-44.332,108-73c0.165-.182,25.458-9.583,45-6a24.163,24.163,0,0,1,8,3c4.938,2.75,77,45,77,45a4.4,4.4,0,0,1,2,4c0.031,3,0,49,0,49H251V365s-80.438,33.833-123,70c0.116,0.167-18,14-18,14v2s38.116,38.19,140,83a3.978,3.978,0,0,0,1,0V491h74v49s2.473,4.155-15,12c0.1,0.417-64,37-64,37-5.759,3.659-25.662,4.7-48-2-43.835-13.141-102.473-47.023-120-86l-1-2V405S80.75,389.5,85,387Z" transform="translate(-77 -307.188)"></path>
  <path id="SvgjsPath1001" data-name="Ditsa copy" class="cls-2" d="M192.264,428.067h-17.6V471h17.6a24.556,24.556,0,0,0,11.623-2.637,18.627,18.627,0,0,0,7.728-7.514,24.826,24.826,0,0,0,0-22.632,18.637,18.637,0,0,0-7.728-7.513,24.556,24.556,0,0,0-11.623-2.637h0Zm0,34.162H184.72V436.837h7.544a12.429,12.429,0,0,1,6.287,1.564,10.764,10.764,0,0,1,4.232,4.416,14.225,14.225,0,0,1,1.5,6.716q0,5.827-3.312,9.262a11.546,11.546,0,0,1-8.709,3.434h0ZM224.587,437.7a5.709,5.709,0,0,0,4.078-1.472,5.295,5.295,0,0,0-.03-7.544,6.3,6.3,0,0,0-8.1,0,5.294,5.294,0,0,0-.031,7.544,5.711,5.711,0,0,0,4.079,1.472h0ZM219.741,471h9.63V440.7h-9.63V471Zm36.309-8.4a7.732,7.732,0,0,1-3.5.859,3.461,3.461,0,0,1-2.514-.889,3.638,3.638,0,0,1-.92-2.73V448.368h7.544V440.7H249.12v-8.586l-9.568,1.042V440.7H234.4v7.667h5.152v11.469q0,6.2,2.882,8.986a10.808,10.808,0,0,0,7.851,2.79,17.735,17.735,0,0,0,8.035-1.778Zm18.339,9.2q6.624,0,10.365-2.668A8.516,8.516,0,0,0,288.5,461.8a7.981,7.981,0,0,0-3.4-6.869q-3.4-2.452-9.905-2.944a9.933,9.933,0,0,1-3.22-.736,1.533,1.533,0,0,1-.951-1.411q0-2.208,4.662-2.208a16.177,16.177,0,0,1,8.157,1.963l3.741-6.44a18.91,18.91,0,0,0-5.55-2.392,26.228,26.228,0,0,0-6.778-.859q-6.255,0-9.936,2.668a8.448,8.448,0,0,0-3.68,7.207,8.067,8.067,0,0,0,3.4,6.746,16.329,16.329,0,0,0,9.17,2.883,10.576,10.576,0,0,1,3.68.736,1.768,1.768,0,0,1,1.1,1.656q0,2.148-3.987,2.147a23.618,23.618,0,0,1-5.8-.736,18.394,18.394,0,0,1-5.121-2.086l-3.68,6.624a24.248,24.248,0,0,0,13.984,4.048h0Zm42.259-31.1-0.614,3.558a12.251,12.251,0,0,0-4.416-3.1,14.535,14.535,0,0,0-5.642-1.073,14.189,14.189,0,0,0-7.514,1.993,13.685,13.685,0,0,0-5.121,5.582,19.138,19.138,0,0,0,0,16.376,13.67,13.67,0,0,0,5.121,5.581,14.18,14.18,0,0,0,7.514,1.993,12.985,12.985,0,0,0,10.058-4.232L316.648,471h8.341V440.7h-8.341Zm-8.4,22.816a6.748,6.748,0,0,1-5.183-2.146,8.641,8.641,0,0,1,0-11.04,6.749,6.749,0,0,1,5.183-2.147,6.892,6.892,0,0,1,5.213,2.116,8.623,8.623,0,0,1,0,11.1,6.892,6.892,0,0,1-5.213,2.116h0Z" transform="translate(-77 -307.188)"></path>
  <path id="SvgjsPath1000" data-name="Kirana Kart copy 2" class="cls-3" d="M351.061,449.1l18.094-21.037h-12.39l-14.106,16.805V428.067h-10V471h10V453.949L357.747,471h13.064ZM378.6,437.7a5.709,5.709,0,0,0,4.078-1.472,5.295,5.295,0,0,0-.03-7.544,6.3,6.3,0,0,0-8.1,0,5.294,5.294,0,0,0-.031,7.544A5.711,5.711,0,0,0,378.6,437.7h0ZM373.753,471h9.63V440.7h-9.63V471Zm34.1-30.973a9.207,9.207,0,0,0-8.1,4.477l-0.736-3.8h-8.4V471h9.629V456.28a8.314,8.314,0,0,1,1.779-5.765,6.211,6.211,0,0,1,4.845-1.963,7.332,7.332,0,0,1,2.331.368,11.6,11.6,0,0,1,2.392,1.165l4.048-7.053a10.308,10.308,0,0,0-3.619-2.239,12.042,12.042,0,0,0-4.171-.766h0Zm33.673,0.674-0.613,3.558a12.268,12.268,0,0,0-4.416-3.1,14.54,14.54,0,0,0-5.643-1.073,14.188,14.188,0,0,0-7.513,1.993,13.671,13.671,0,0,0-5.121,5.582,19.138,19.138,0,0,0,0,16.376,13.656,13.656,0,0,0,5.121,5.581,14.179,14.179,0,0,0,7.513,1.993,12.985,12.985,0,0,0,10.059-4.232L441.527,471h8.342V440.7h-8.342Zm-8.4,22.816a6.745,6.745,0,0,1-5.183-2.146,8.641,8.641,0,0,1,0-11.04,6.746,6.746,0,0,1,5.183-2.147,6.893,6.893,0,0,1,5.213,2.116,8.623,8.623,0,0,1,0,11.1,6.893,6.893,0,0,1-5.213,2.116h0Zm42.687-23.49a13.368,13.368,0,0,0-5.49,1.1,12.187,12.187,0,0,0-4.262,3.128l-0.614-3.558h-8.341V471h9.629V455.053a7.129,7.129,0,0,1,1.718-4.968,5.82,5.82,0,0,1,4.538-1.9,5.136,5.136,0,0,1,4.048,1.656,6.681,6.681,0,0,1,1.472,4.6V471h9.63V453.888q0-6.5-3.343-10.181a11.54,11.54,0,0,0-8.985-3.68h0Zm42.626,0.674-0.613,3.558a12.268,12.268,0,0,0-4.416-3.1,14.54,14.54,0,0,0-5.643-1.073,14.188,14.188,0,0,0-7.513,1.993,13.671,13.671,0,0,0-5.121,5.582,19.138,19.138,0,0,0,0,16.376,13.656,13.656,0,0,0,5.121,5.581,14.179,14.179,0,0,0,7.513,1.993,12.985,12.985,0,0,0,10.059-4.232L518.438,471h8.342V440.7h-8.342Zm-8.4,22.816a6.745,6.745,0,0,1-5.183-2.146,8.641,8.641,0,0,1,0-11.04,6.746,6.746,0,0,1,5.183-2.147,6.893,6.893,0,0,1,5.213,2.116,8.623,8.623,0,0,1,0,11.1,6.893,6.893,0,0,1-5.213,2.116h0ZM351.061,511.6l18.094-21.037h-12.39l-14.106,16.805V490.567h-10V533.5h10V516.449L357.747,533.5h13.064Zm44.16-8.4-0.613,3.558a12.268,12.268,0,0,0-4.416-3.1,14.54,14.54,0,0,0-5.643-1.073,14.188,14.188,0,0,0-7.513,1.993,13.671,13.671,0,0,0-5.121,5.582,19.138,19.138,0,0,0,0,16.376,13.656,13.656,0,0,0,5.121,5.581,14.179,14.179,0,0,0,7.513,1.993,12.985,12.985,0,0,0,10.059-4.232l0.613,3.619h8.342V503.2h-8.342Zm-8.4,22.816a6.745,6.745,0,0,1-5.183-2.146,8.641,8.641,0,0,1,0-11.04,6.746,6.746,0,0,1,5.183-2.147,6.893,6.893,0,0,1,5.213,2.116,8.623,8.623,0,0,1,0,11.1,6.893,6.893,0,0,1-5.213,2.116h0Zm41.215-23.49a9.2,9.2,0,0,0-8.1,4.477l-0.736-3.8h-8.4v30.3h9.629V518.78a8.318,8.318,0,0,1,1.779-5.765,6.212,6.212,0,0,1,4.845-1.963,7.332,7.332,0,0,1,2.331.368,11.6,11.6,0,0,1,2.392,1.165l4.048-7.053a10.3,10.3,0,0,0-3.619-2.239,12.041,12.041,0,0,0-4.17-.766h0Zm30.482,22.57a7.732,7.732,0,0,1-3.5.859,3.463,3.463,0,0,1-2.514-.889,3.638,3.638,0,0,1-.92-2.73V510.868h7.544V503.2h-7.544v-8.586l-9.568,1.042V503.2h-5.152v7.667h5.152v11.469q0,6.2,2.882,8.986a10.808,10.808,0,0,0,7.851,2.79,17.735,17.735,0,0,0,8.035-1.778Z" transform="translate(-77 -307.188)"></path>
</svg><style>@media (prefers-color-scheme: light) { :root { filter: none; } }
@media (prefers-color-scheme: dark) { :root { filter: contrast(0.8333333333333334) brightness(1.7); } }
</style></svg>