<svg xmlns="http://www.w3.org/2000/svg" width="256" height="256" viewBox="0 0 299.03 299.03" xmlns:v="https://vecta.io/nano"><g fill-rule="evenodd"><path d="M134.786 6.331c49.831-18.461 94.184 56.07 91.637 149.206-2.25 82.3-38.266 137.812-75.943 139.906-35.391 1.968-68.3-42.045-76.946-110.919-9.519-75.789 15.132-161.109 61.252-178.193z" fill="red"/><path d="M62.874 34.515c33.492-41.258 109.611.313 154.833 81.773 39.959 71.979 37.222 138.1 5.86 159.081-29.461 19.711-80.187-1.421-122.7-56.3C54.093 158.688 31.876 72.703 62.874 34.515z" fill="#003"/><path d="M17.592 90.93c8.655-52.431 95.37-54.028 175.008-5.669 70.369 42.73 100.746 101.521 83.9 135.286-15.826 31.716-70.359 38.489-134.472 11.878C71.477 203.143 9.582 139.456 17.592 90.93z" fill="red"/><path d="M292.699 136.786c18.461 49.831-56.07 94.184-149.206 91.637-82.3-2.25-137.812-38.266-139.906-75.943-1.968-35.391 42.045-68.3 110.919-76.946 75.789-9.519 161.109 15.132 178.193 61.252z" fill="#003"/><path d="M265.57 65.903c40.907 34.126-1.406 109.8-83.283 153.974-72.348 39.029-138.411 35.367-159.072 3.656-19.409-29.788 2.22-80.312 57.5-122.135 60.825-46.02 147-67.083 184.855-35.495z" fill="red"/><path d="M206.15 17.815c52.62 8.317 55.109 94.984 7.475 174.9-42.09 70.611-100.681 101.349-134.682 84.724-31.94-15.618-39.284-70.084-13.28-134.338C94.278 72.391 157.45 10.115 206.15 17.815z" fill="#003"/></g><circle cx="149.015" cy="153.015" r="117.5" fill="none" stroke="#f8f8f8" stroke-width="4.375"/><path d="M160.474 172.705l-2.077-5.157h-17.62l-2.077 5.157h21.774zm4.154 10.314l-2.22-5.157h-25.714l-2 5.157h29.939zm4.011 10.314l-2.149-5.157h-33.807l-2 5.157h37.961zm-35.741-97.482l44.117 111.664h5.515L135.691 88.903h-5.586L83.19 207.515h5.587zM94.292 207.515h5.515l36.672-92.827-2.936-6.589zm11.1 0h5.587l31.013-78.716-2.721-7.091zm11.1 0h5.523l25.427-64.391-2.722-7.234zm52.43-118.612h-5.507l46.838 118.612h5.587zm-16.618 0l46.919 118.612h5.515L157.824 88.903h-5.516zm-11.1 0l46.846 118.612h5.586L146.722 88.903h-5.515z" fill-rule="evenodd" fill="#fff"/></svg>