<svg id="barcode_1" class="barcode" jsbarcode-width="1" jsbarcode-height="10" jsbarcode-textmargin="0" jsbarcode-text="0301MAIDA26" jsbarcode-value="0301MAIDA26" width="50mm" height="15mm" x="0px" y="0px" viewBox="0 0 165 60" xmlns="http://www.w3.org/2000/svg" version="1.1" style="transform: translate(0,0)"><rect x="0" y="0" width="165" height="60" style="fill:#ffffff;"></rect><g transform="translate(10, 10)" style="fill:#000000;"><rect x="0" y="0" width="2" height="20"></rect><rect x="3" y="0" width="1" height="20"></rect><rect x="6" y="0" width="3" height="20"></rect><rect x="11" y="0" width="1" height="20"></rect><rect x="14" y="0" width="1" height="20"></rect><rect x="17" y="0" width="2" height="20"></rect><rect x="22" y="0" width="2" height="20"></rect><rect x="26" y="0" width="2" height="20"></rect><rect x="29" y="0" width="2" height="20"></rect><rect x="33" y="0" width="3" height="20"></rect><rect x="37" y="0" width="1" height="20"></rect><rect x="39" y="0" width="4" height="20"></rect><rect x="44" y="0" width="1" height="20"></rect><rect x="46" y="0" width="3" height="20"></rect><rect x="50" y="0" width="2" height="20"></rect><rect x="55" y="0" width="1" height="20"></rect><rect x="57" y="0" width="1" height="20"></rect><rect x="61" y="0" width="2" height="20"></rect><rect x="66" y="0" width="2" height="20"></rect><rect x="71" y="0" width="1" height="20"></rect><rect x="75" y="0" width="1" height="20"></rect><rect x="77" y="0" width="1" height="20"></rect><rect x="79" y="0" width="2" height="20"></rect><rect x="84" y="0" width="1" height="20"></rect><rect x="88" y="0" width="1" height="20"></rect><rect x="90" y="0" width="1" height="20"></rect><rect x="94" y="0" width="2" height="20"></rect><rect x="99" y="0" width="2" height="20"></rect><rect x="103" y="0" width="3" height="20"></rect><rect x="108" y="0" width="1" height="20"></rect><rect x="110" y="0" width="2" height="20"></rect><rect x="114" y="0" width="3" height="20"></rect><rect x="118" y="0" width="1" height="20"></rect><rect x="121" y="0" width="3" height="20"></rect><rect x="125" y="0" width="3" height="20"></rect><rect x="129" y="0" width="2" height="20"></rect><rect x="132" y="0" width="2" height="20"></rect><rect x="137" y="0" width="3" height="20"></rect><rect x="141" y="0" width="1" height="20"></rect><rect x="143" y="0" width="2" height="20"></rect><text style="font: 20px monospace" text-anchor="middle" x="72.5" y="40">0301MAIDA26-780</text></g></svg>