<svg xmlns="http://www.w3.org/2000/svg" viewBox="0 0 26 26">
  <path d="M1.1875 1C0.359375 1.085938 -0.242188 1.828125 -0.15625 2.65625C-0.0703125 3.484375 0.671875 4.085938 1.5 4C2.601563 4 3.101563 4.261719 3.40625 4.53125C3.710938 4.800781 3.917969 5.183594 4.03125 5.78125C4.402344 7.777344 5.71875 14.277344 6.03125 15.8125C6.566406 18.429688 8.972656 20 11.5 20L19.5 20C20.46875 20 20.796875 19.542969 21.125 19.21875C21.453125 18.894531 21.738281 18.542969 22.03125 18.125C22.617188 17.292969 23.21875 16.246094 23.78125 15.21875C24.90625 13.167969 25.84375 11.125 25.84375 11.125C26.171875 10.632813 26.183594 9.992188 25.871094 9.492188C25.554688 8.992188 24.976563 8.722656 24.386719 8.804688C23.800781 8.886719 23.320313 9.304688 23.15625 9.875C23.15625 9.875 22.226563 11.832031 21.15625 13.78125C20.621094 14.753906 20.03125 15.707031 19.5625 16.375C19.359375 16.667969 19.183594 16.871094 19.0625 17L11.5 17C10.027344 17 9.230469 16.460938 8.96875 15.1875C8.65625 13.660156 7.320313 7.109375 6.96875 5.21875C6.777344 4.195313 6.347656 3.074219 5.40625 2.25C4.464844 1.425781 3.109375 1 1.5 1C1.449219 0.996094 1.394531 0.996094 1.34375 1C1.292969 0.996094 1.238281 0.996094 1.1875 1 Z M 15 2.03125C14.4375 2.03125 13.582031 2.238281 13.375 2.53125C13.234375 2.730469 13.03125 7.03125 13.03125 7.03125L10.78125 7.03125C10.574219 7.03125 10.410156 7.132813 10.3125 7.3125C10.214844 7.496094 10.199219 7.703125 10.3125 7.875C11.800781 10.089844 14.558594 12.765625 14.65625 12.84375C14.757813 12.925781 14.878906 12.96875 15 12.96875C15.121094 12.96875 15.242188 12.925781 15.34375 12.84375C15.445313 12.765625 18.167969 10.089844 19.65625 7.875C19.769531 7.703125 19.785156 7.496094 19.6875 7.3125C19.59375 7.132813 19.421875 7.03125 19.21875 7.03125L16.96875 7.03125C16.96875 7.03125 16.765625 2.730469 16.625 2.53125C16.417969 2.238281 15.558594 2.03125 15 2.03125 Z M 10.5 21C9.121094 21 8 22.121094 8 23.5C8 24.878906 9.121094 26 10.5 26C11.878906 26 13 24.878906 13 23.5C13 22.121094 11.878906 21 10.5 21 Z M 19.5 21C18.121094 21 17 22.121094 17 23.5C17 24.878906 18.121094 26 19.5 26C20.878906 26 22 24.878906 22 23.5C22 22.121094 20.878906 21 19.5 21Z" fill="#FFFFFF" />
</svg>