<svg id="Logo-Color-Black" xmlns="http://www.w3.org/2000/svg" width="375" height="375" viewBox="0 0 375 375">
  <defs>
    <style>
      .cls-1 {
        fill: #e51837;
      }

      .cls-2 {
        fill: #fff;
        fill-rule: evenodd;
      }
    </style>
  </defs>
  <path id="Rectangle_1_copy" data-name="Rectangle 1 copy" class="cls-1" d="M0,0H375a0,0,0,0,1,0,0V350a25,25,0,0,1-25,25H25A25,25,0,0,1,0,350V0A0,0,0,0,1,0,0Z"/>
  <path id="Logo-D-Shape" class="cls-2" d="M38.993,201.71s19.6-30.353,73.947-49.982c0.113-.125,17.431-6.562,30.811-4.109a16.593,16.593,0,0,1,5.477,2.055c3.381,1.882,52.721,30.811,52.721,30.811a3.012,3.012,0,0,1,1.37,2.738c0.021,2.054,0,33.55,0,33.55H152.652V186.647s-55.075,23.165-84.217,47.928c0.079,0.114-12.324,9.586-12.324,9.586v1.369s26.1,26.149,95.856,56.829a2.7,2.7,0,0,0,.685,0V272.918h50.667v33.549s1.693,2.845-10.27,8.217c0.067,0.285-43.821,25.333-43.821,25.333-3.943,2.5-17.57,3.216-32.865-1.369-30.013-9-70.162-32.2-82.162-58.883l-0.685-1.37V214.034S36.084,203.422,38.993,201.71Z" transform="translate(0 -46)"/>
  <path id="Ditsa_copy" data-name="Ditsa copy" class="cls-2" d="M112.436,229.828H100.384v29.4h12.052a16.808,16.808,0,0,0,7.958-1.806,12.748,12.748,0,0,0,5.291-5.144,16.994,16.994,0,0,0,0-15.5,12.755,12.755,0,0,0-5.291-5.144,16.808,16.808,0,0,0-7.958-1.806h0Zm0,23.391h-5.165V235.833h5.165a8.5,8.5,0,0,1,4.3,1.071,7.364,7.364,0,0,1,2.9,3.023,9.734,9.734,0,0,1,1.029,4.6,8.749,8.749,0,0,1-2.268,6.341,7.907,7.907,0,0,1-5.963,2.352h0Zm22.131-16.8a3.905,3.905,0,0,0,2.792-1.008,3.625,3.625,0,0,0-.02-5.165,4.316,4.316,0,0,0-5.544,0,3.624,3.624,0,0,0-.021,5.165,3.91,3.91,0,0,0,2.793,1.008h0Zm-3.318,22.8h6.593V238.479h-6.593v20.745Zm24.861-5.753a5.3,5.3,0,0,1-2.394.588,2.373,2.373,0,0,1-1.722-.609,2.492,2.492,0,0,1-.63-1.869v-7.853h5.166v-5.249h-5.166V232.6l-6.551.713v5.166h-3.527v5.249h3.527v7.853q0,4.242,1.974,6.152a7.4,7.4,0,0,0,5.375,1.911,12.13,12.13,0,0,0,5.5-1.218Zm12.556,6.3a12.047,12.047,0,0,0,7.1-1.827,5.833,5.833,0,0,0,2.562-5.018,5.466,5.466,0,0,0-2.331-4.7,13.3,13.3,0,0,0-6.782-2.015,6.814,6.814,0,0,1-2.2-.5,1.049,1.049,0,0,1-.651-0.966q0-1.512,3.192-1.512a11.073,11.073,0,0,1,5.585,1.344l2.562-4.41a12.969,12.969,0,0,0-3.8-1.637,17.938,17.938,0,0,0-4.64-.588,11.36,11.36,0,0,0-6.8,1.827,5.781,5.781,0,0,0-2.52,4.934,5.523,5.523,0,0,0,2.331,4.619,11.179,11.179,0,0,0,6.278,1.974,7.224,7.224,0,0,1,2.519.5,1.211,1.211,0,0,1,.756,1.134q0,1.47-2.729,1.47a16.147,16.147,0,0,1-3.969-.5,12.6,12.6,0,0,1-3.506-1.428L159.091,257a16.6,16.6,0,0,0,9.575,2.772h0ZM197.6,238.479l-0.42,2.435a8.391,8.391,0,0,0-3.023-2.12,9.948,9.948,0,0,0-3.864-.735,9.705,9.705,0,0,0-5.144,1.365,9.359,9.359,0,0,0-3.507,3.821,13.113,13.113,0,0,0,0,11.213,9.359,9.359,0,0,0,3.507,3.821,9.705,9.705,0,0,0,5.144,1.365,8.89,8.89,0,0,0,6.887-2.9l0.42,2.478h5.711V238.479H197.6ZM191.847,254.1a4.62,4.62,0,0,1-3.549-1.47,5.918,5.918,0,0,1,0-7.559,4.62,4.62,0,0,1,3.549-1.47,4.722,4.722,0,0,1,3.57,1.449,5.907,5.907,0,0,1,0,7.6,4.722,4.722,0,0,1-3.57,1.449h0Z" transform="translate(0 -46)"/>
  <path id="Kirana_Kart_copy_2" data-name="Kirana Kart copy 2" class="cls-2" d="M221.163,244.232l12.388-14.4h-8.483l-9.658,11.506V229.828h-6.845v29.4h6.845V247.549l10.33,11.675h8.945Zm18.854-7.811a3.91,3.91,0,0,0,2.793-1.008,3.624,3.624,0,0,0-.021-5.165,4.314,4.314,0,0,0-5.543,0,3.624,3.624,0,0,0-.021,5.165,3.907,3.907,0,0,0,2.792,1.008h0Zm-3.317,22.8h6.593V238.479H236.7v20.745Zm23.348-21.207a6.3,6.3,0,0,0-5.543,3.065l-0.5-2.6h-5.753v20.745h6.593V249.145a5.7,5.7,0,0,1,1.218-3.947,4.252,4.252,0,0,1,3.318-1.344,5.012,5.012,0,0,1,1.595.252,7.929,7.929,0,0,1,1.638.8l2.772-4.83a7.06,7.06,0,0,0-2.478-1.532,8.228,8.228,0,0,0-2.856-.525h0Zm23.056,0.462-0.42,2.435a8.4,8.4,0,0,0-3.024-2.12,9.947,9.947,0,0,0-3.863-.735,9.705,9.705,0,0,0-5.144,1.365,9.359,9.359,0,0,0-3.507,3.821,13.1,13.1,0,0,0,0,11.213,9.359,9.359,0,0,0,3.507,3.821,9.705,9.705,0,0,0,5.144,1.365,8.893,8.893,0,0,0,6.887-2.9l0.42,2.478h5.711V238.479H283.1ZM277.351,254.1a4.62,4.62,0,0,1-3.549-1.47,5.915,5.915,0,0,1,0-7.559,4.62,4.62,0,0,1,3.549-1.47,4.72,4.72,0,0,1,3.569,1.449,5.9,5.9,0,0,1,0,7.6,4.72,4.72,0,0,1-3.569,1.449h0Zm29.227-16.084a9.145,9.145,0,0,0-3.758.756,8.355,8.355,0,0,0-2.919,2.141l-0.42-2.435H293.77v20.745h6.593V248.305a4.88,4.88,0,0,1,1.176-3.4,3.983,3.983,0,0,1,3.107-1.3,3.518,3.518,0,0,1,2.772,1.134,4.576,4.576,0,0,1,1.008,3.149v11.339h6.593V247.507a9.987,9.987,0,0,0-2.289-6.971,7.9,7.9,0,0,0-6.152-2.519h0Zm29.186,0.462-0.42,2.435a8.4,8.4,0,0,0-3.024-2.12,9.94,9.94,0,0,0-3.863-.735,9.705,9.705,0,0,0-5.144,1.365,9.359,9.359,0,0,0-3.507,3.821,13.1,13.1,0,0,0,0,11.213,9.359,9.359,0,0,0,3.507,3.821,9.705,9.705,0,0,0,5.144,1.365,8.893,8.893,0,0,0,6.887-2.9l0.42,2.478h5.711V238.479h-5.711ZM330.011,254.1a4.62,4.62,0,0,1-3.549-1.47,5.915,5.915,0,0,1,0-7.559,4.62,4.62,0,0,1,3.549-1.47,4.72,4.72,0,0,1,3.569,1.449,5.9,5.9,0,0,1,0,7.6,4.72,4.72,0,0,1-3.569,1.449h0ZM221.163,287.025l12.388-14.4h-8.483l-9.658,11.506V272.621h-6.845v29.4h6.845V290.343l10.33,11.674h8.945Zm30.236-5.753-0.42,2.435a8.407,8.407,0,0,0-3.024-2.12,9.947,9.947,0,0,0-3.863-.735,9.711,9.711,0,0,0-5.145,1.365,9.357,9.357,0,0,0-3.506,3.821,13.1,13.1,0,0,0,0,11.213,9.357,9.357,0,0,0,3.506,3.821,9.711,9.711,0,0,0,5.145,1.365,8.893,8.893,0,0,0,6.887-2.9l0.42,2.478h5.711V281.272H251.4Zm-5.754,15.622a4.617,4.617,0,0,1-3.548-1.47,5.915,5.915,0,0,1,0-7.559,4.617,4.617,0,0,1,3.548-1.47,4.721,4.721,0,0,1,3.57,1.449,5.9,5.9,0,0,1,0,7.6,4.721,4.721,0,0,1-3.57,1.449h0Zm28.22-16.084a6.3,6.3,0,0,0-5.543,3.065l-0.5-2.6h-5.753v20.745h6.593V291.938a5.691,5.691,0,0,1,1.218-3.947,4.25,4.25,0,0,1,3.317-1.344,5.014,5.014,0,0,1,1.6.252,7.929,7.929,0,0,1,1.638.8l2.771-4.829a7.044,7.044,0,0,0-2.477-1.533,8.232,8.232,0,0,0-2.856-.525h0Zm20.871,15.454a5.3,5.3,0,0,1-2.394.588,2.371,2.371,0,0,1-1.721-.609,2.492,2.492,0,0,1-.63-1.869v-7.853h5.165v-5.249h-5.165v-5.879l-6.551.713v5.166h-3.528v5.249h3.528v7.853q0,4.242,1.973,6.152a7.4,7.4,0,0,0,5.376,1.911,12.133,12.133,0,0,0,5.5-1.218Z" transform="translate(0 -46)"/>
</svg>
