<svg xmlns="http://www.w3.org/2000/svg" width="256" height="256" viewBox="0 0 299.03 299.03">
  <metadata><?xpacket begin="﻿" id="W5M0MpCehiHzreSzNTczkc9d"?>
<x:xmpmeta xmlns:x="adobe:ns:meta/" x:xmptk="Adobe XMP Core 5.6-c138 79.159824, 2016/09/14-01:09:01        ">
   <rdf:RDF xmlns:rdf="http://www.w3.org/1999/02/22-rdf-syntax-ns#">
      <rdf:Description rdf:about=""/>
   </rdf:RDF>
</x:xmpmeta>
                                                                                                    
                                                                                                    
                                                                                                    
                                                                                                    
                                                                                                    
                                                                                                    
                                                                                                    
                                                                                                    
                                                                                                    
                                                                                                    
                                                                                                    
                                                                                                    
                                                                                                    
                                                                                                    
                                                                                                    
                                                                                                    
                                                                                                    
                                                                                                    
                                                                                                    
                                                                                                    
                           
<?xpacket end="w"?></metadata>
<defs>
    <style>
      .cls-1 {
        fill: red;
      }

      .cls-1, .cls-2, .cls-4 {
        fill-rule: evenodd;
      }

      .cls-2 {
        fill: #003;
      }

      .cls-3 {
        fill: none;
        stroke: #f8f8f8;
        stroke-width: 4.375px;
      }

      .cls-4 {
        fill: #fff;
      }
    </style>
  </defs>
  <path id="_1" data-name="1" class="cls-1" d="M203.271,69.816c49.831-18.461,94.184,56.07,91.637,149.206-2.25,82.3-38.266,137.812-75.943,139.906-35.391,1.968-68.3-42.045-76.946-110.919C132.5,172.22,157.151,86.9,203.271,69.816Z" transform="translate(-68.485 -63.485)"/>
  <path id="_2" data-name="2" class="cls-2" d="M131.359,98c33.492-41.258,109.611.313,154.833,81.773,39.959,71.979,37.222,138.1,5.86,159.081-29.461,19.711-80.187-1.421-122.7-56.3C122.578,222.173,100.361,136.188,131.359,98Z" transform="translate(-68.485 -63.485)"/>
  <path id="_3" data-name="3" class="cls-1" d="M86.077,154.415c8.655-52.431,95.37-54.028,175.008-5.669,70.369,42.73,100.746,101.521,83.9,135.286-15.826,31.716-70.359,38.489-134.472,11.878C139.962,266.628,78.067,202.941,86.077,154.415Z" transform="translate(-68.485 -63.485)"/>
  <path id="_4" data-name="4" class="cls-2" d="M361.184,200.271c18.461,49.831-56.07,94.184-149.206,91.637-82.3-2.25-137.812-38.266-139.906-75.943-1.968-35.391,42.045-68.3,110.919-76.946C258.78,129.5,344.1,154.151,361.184,200.271Z" transform="translate(-68.485 -63.485)"/>
  <path id="_5" data-name="5" class="cls-1" d="M334.055,129.388c40.907,34.126-1.406,109.8-83.283,153.974-72.348,39.029-138.411,35.367-159.072,3.656-19.409-29.788,2.22-80.312,57.5-122.135C210.025,118.863,296.2,97.8,334.055,129.388Z" transform="translate(-68.485 -63.485)"/>
  <path id="_6" data-name="6" class="cls-2" d="M274.635,81.3c52.62,8.317,55.109,94.984,7.475,174.9-42.09,70.611-100.681,101.349-134.682,84.724-31.94-15.618-39.284-70.084-13.28-134.338C162.763,135.876,225.935,73.6,274.635,81.3Z" transform="translate(-68.485 -63.485)"/>
  <circle id="ellipse" class="cls-3" cx="149.015" cy="153.015" r="117.5"/>
  <path id="A-Shape" class="cls-4" d="M228.959,236.19l-2.077-5.157h-17.62l-2.077,5.157h21.774Zm4.154,10.314-2.22-5.157H205.179l-2,5.157h29.939Zm4.011,10.314-2.149-5.157H201.168l-2,5.157h37.961Zm-35.741-97.482L245.5,271h5.515L204.176,152.388H198.59L151.675,271h5.587ZM162.777,271h5.515l36.672-92.827-2.936-6.589Zm11.1,0h5.587l31.013-78.716-2.721-7.091Zm11.1,0H190.5l25.427-64.391-2.722-7.234Zm52.43-118.612H231.9L278.738,271h5.587Zm-16.618,0L267.708,271h5.515L226.309,152.388h-5.516Zm-11.1,0L256.535,271h5.586L215.207,152.388h-5.515Z" transform="translate(-68.485 -63.485)"/>
</svg>
